# xmcd
#
# Track frame offsets: 
#        150
#        5291
#        26167
#        38832
#        54149
#        70045
#        83499
#        105259
#        120454
#        131049
#        145562
#        161513
#        175577
#        184587
#
# Disc length: 2514 seconds
#
# Revision: 0
# Processed by: cddbd v1.5.2PL0 Copyright (c) Steve Scherf et al.
# Submitted via: ExactAudioCopyFreeDBPlugin 1.0
#
DISCID=9c09d00e
DTITLE=Gangrene - Vodka and Ayahuasca
DYEAR=2012
DGENRE=Hip Hop
TTITLE0=Intro (The Mixings)
TTITLE1=Gladiator Music (feat. Kool G Rap)
TTITLE2=Flamethrowers
TTITLE3=Drink Up (feat. Roc Marciano)
TTITLE4=Auralac Bags
TTITLE5=Vodka and Ayahuasca
TTITLE6=Dump Truck (feat. Prodigy)
TTITLE7=Due Work
TTITLE8=Odds Cracked
TTITLE9=Top Instructions
TTITLE10=Dark Shades (feat. Evidence and Roc C)
TTITLE11=The Groove
TTITLE12=Livers for Sale
TTITLE13=Outro (The Downsides)
EXTD=
EXTT0=
EXTT1=
EXTT2=
EXTT3=
EXTT4=
EXTT5=
EXTT6=
EXTT7=
EXTT8=
EXTT9=
EXTT10=
EXTT11=
EXTT12=
EXTT13=
PLAYORDER=
